<svg width="8" height="14" viewBox="0 0 8 14" fill="none" xmlns="http://www.w3.org/2000/svg">
<path d="M7.00391 0.00280092L5.25825 0C3.29707 0 2.02967 1.30033 2.02967 3.31293V4.84041H0.274487C0.122819 4.84041 0 4.96337 0 5.11504V7.32819C0 7.47986 0.122959 7.60268 0.274487 7.60268H2.02967V13.1872C2.02967 13.3388 2.15248 13.4616 2.30415 13.4616H4.59416C4.74583 13.4616 4.86865 13.3387 4.86865 13.1872V7.60268H6.92086C7.07253 7.60268 7.19535 7.47986 7.19535 7.32819L7.19619 5.11504C7.19619 5.04222 7.1672 4.97247 7.1158 4.92094C7.06441 4.8694 6.99438 4.84041 6.92156 4.84041H4.86865V3.54554C4.86865 2.92318 5.01696 2.60724 5.82767 2.60724L7.00363 2.60682C7.15516 2.60682 7.27797 2.48386 7.27797 2.33233V0.277291C7.27797 0.125901 7.1553 0.00308101 7.00391 0.00280092Z" fill="#707070"/>
</svg>
