<svg width="857" height="962" viewBox="0 0 857 962" fill="none" xmlns="http://www.w3.org/2000/svg">
<path d="M7.25759 4.07339C7.25759 6.78899 6.04799 8.14679 3.62879 8.14679C1.2096 8.14679 0 6.78899 0 4.07339C0 2.0367 1.8144 0 3.62879 0C5.44319 0 7.25759 2.0367 7.25759 4.07339Z" fill="#E5E5E5"/>
<path d="M84.6718 4.07339C84.6718 6.11009 82.8574 8.14679 81.043 8.14679C79.2286 8.14679 77.4142 6.11009 77.4142 4.07339C77.4142 2.0367 78.6238 0 81.043 0C82.8574 0 84.6718 2.0367 84.6718 4.07339Z" fill="#E5E5E5"/>
<path d="M162.086 4.07339C162.086 6.11009 160.272 8.14679 158.457 8.14679C156.643 8.14679 154.828 6.11009 154.828 4.07339C154.828 2.0367 156.643 0 158.457 0C160.272 0 162.086 2.0367 162.086 4.07339Z" fill="#E5E5E5"/>
<path d="M239.5 4.07339C239.5 6.11009 237.686 8.14679 235.872 8.14679C234.057 8.14679 232.243 6.11009 232.243 4.07339C232.243 2.0367 234.057 0 235.872 0C237.686 0 239.5 2.0367 239.5 4.07339Z" fill="#E5E5E5"/>
<path d="M316.31 4.07339C316.31 6.11009 314.495 8.14679 312.681 8.14679C310.867 8.14679 309.052 6.11009 309.052 4.07339C309.052 2.0367 310.867 0 312.681 0C314.495 0 316.31 2.0367 316.31 4.07339Z" fill="#E5E5E5"/>
<path d="M393.724 4.07339C393.724 6.11009 391.91 8.14679 390.095 8.14679C388.281 8.14679 386.467 6.78899 386.467 4.07339C386.467 2.0367 388.281 0 390.095 0C391.91 0 393.724 2.0367 393.724 4.07339Z" fill="#E5E5E5"/>
<path d="M471.138 4.07339C471.138 6.11009 469.324 8.14679 467.509 8.14679C465.695 8.14679 463.276 6.78899 463.276 4.07339C463.276 2.0367 465.09 0 466.905 0C468.719 0 471.138 2.0367 471.138 4.07339Z" fill="#E5E5E5"/>
<path d="M547.948 4.07339C547.948 6.11009 546.133 8.14679 544.319 8.14679C542.505 8.14679 540.69 6.11009 540.69 4.07339C540.69 2.0367 542.505 0 544.319 0C546.738 0 547.948 2.0367 547.948 4.07339Z" fill="#E5E5E5"/>
<path d="M625.362 4.07339C625.362 6.11009 623.548 8.14679 621.733 8.14679C619.919 8.14679 618.104 6.11009 618.104 4.07339C618.104 2.0367 619.919 0 621.733 0C623.548 0 625.362 2.0367 625.362 4.07339Z" fill="#E5E5E5"/>
<path d="M702.776 4.07339C702.776 6.11009 700.962 8.14679 699.148 8.14679C697.333 8.14679 695.519 6.11009 695.519 4.07339C695.519 2.0367 697.333 0 699.148 0C700.962 0 702.776 2.0367 702.776 4.07339Z" fill="#E5E5E5"/>
<path d="M780.19 4.07339C780.19 6.11009 778.376 8.14679 776.562 8.14679C774.747 8.14679 772.933 6.11009 772.933 4.07339C772.933 2.0367 774.747 0 776.562 0C778.376 0 780.19 2.0367 780.19 4.07339Z" fill="#E5E5E5"/>
<path d="M857 4.07339C857 6.11009 855.186 8.14679 853.371 8.14679C851.557 8.14679 849.742 6.11009 849.742 4.07339C849.742 2.0367 851.557 0 853.371 0C855.79 0 857 2.0367 857 4.07339Z" fill="#E5E5E5"/>
<path d="M7.25759 90.9728C7.25759 93.0095 6.04799 95.0462 3.62879 95.0462C1.2096 95.0462 0 93.0095 0 90.9728C0 88.9361 1.8144 86.8994 3.62879 86.8994C5.44319 86.8994 7.25759 88.2572 7.25759 90.9728Z" fill="#E5E5E5"/>
<path d="M84.6718 90.9728C84.6718 93.0095 82.8574 95.0462 81.043 95.0462C79.2286 95.0462 77.4142 93.0095 77.4142 90.9728C77.4142 88.9361 79.2286 86.8994 81.043 86.8994C82.8574 86.8994 84.6718 88.2572 84.6718 90.9728Z" fill="#E5E5E5"/>
<path d="M162.086 90.9728C162.086 93.0095 160.272 95.0462 158.457 95.0462C156.643 95.0462 154.828 93.0095 154.828 90.9728C154.828 88.9361 156.643 86.8994 158.457 86.8994C160.272 86.8994 162.086 88.2572 162.086 90.9728Z" fill="#E5E5E5"/>
<path d="M239.5 90.9728C239.5 93.0095 237.686 95.0462 235.872 95.0462C234.057 95.0462 232.243 93.0095 232.243 90.9728C232.243 88.9361 234.057 86.8994 235.872 86.8994C237.686 86.8994 239.5 88.2572 239.5 90.9728Z" fill="#E5E5E5"/>
<path d="M316.31 90.9728C316.31 93.0095 314.495 95.0462 312.681 95.0462C310.867 95.0462 309.052 93.0095 309.052 90.9728C309.052 88.9361 310.867 86.8994 312.681 86.8994C314.495 86.8994 316.31 88.2572 316.31 90.9728Z" fill="#E5E5E5"/>
<path d="M393.724 90.9728C393.724 93.0095 391.91 95.0462 390.095 95.0462C388.281 95.0462 386.467 93.0095 386.467 90.9728C386.467 88.9361 388.281 86.8994 390.095 86.8994C391.91 86.8994 393.724 88.2572 393.724 90.9728Z" fill="#E5E5E5"/>
<path d="M471.138 90.9728C471.138 93.0095 469.324 95.0462 467.51 95.0462C465.695 95.0462 463.881 93.0095 463.881 90.9728C463.881 88.9361 465.695 86.8994 467.51 86.8994C469.324 86.8994 471.138 88.2572 471.138 90.9728Z" fill="#E5E5E5"/>
<path d="M547.948 90.9728C547.948 93.0095 546.133 95.0462 544.319 95.0462C542.505 95.0462 540.69 93.0095 540.69 90.9728C540.69 88.9361 542.505 86.8994 544.319 86.8994C546.738 86.8994 547.948 88.2572 547.948 90.9728Z" fill="#E5E5E5"/>
<path d="M625.362 90.9728C625.362 93.0095 623.548 95.0462 621.733 95.0462C619.919 95.0462 618.104 93.0095 618.104 90.9728C618.104 88.9361 619.919 86.8994 621.733 86.8994C623.548 86.8994 625.362 88.2572 625.362 90.9728Z" fill="#E5E5E5"/>
<path d="M702.776 90.9728C702.776 93.0095 700.962 95.0462 699.148 95.0462C697.333 95.0462 695.519 93.0095 695.519 90.9728C695.519 88.9361 697.333 86.8994 699.148 86.8994C700.962 86.8994 702.776 88.2572 702.776 90.9728Z" fill="#E5E5E5"/>
<path d="M780.19 90.9728C780.19 93.0095 778.376 95.0462 776.562 95.0462C774.747 95.0462 772.933 93.0095 772.933 90.9728C772.933 88.9361 774.747 86.8994 776.562 86.8994C778.376 86.8994 780.19 88.2572 780.19 90.9728Z" fill="#E5E5E5"/>
<path d="M857 90.9728C857 93.0095 855.186 95.0462 853.371 95.0462C851.557 95.0462 849.742 93.0095 849.742 90.9728C849.742 88.9361 851.557 86.8994 853.371 86.8994C855.79 86.8994 857 88.2572 857 90.9728Z" fill="#E5E5E5"/>
<path d="M7.25759 177.872C7.25759 179.909 5.44319 181.946 3.62879 181.946C1.8144 181.946 0 179.909 0 177.872C0 175.836 1.8144 173.799 3.62879 173.799C5.44319 173.799 7.25759 175.157 7.25759 177.872Z" fill="#E5E5E5"/>
<path d="M84.6718 177.871C84.6718 179.908 82.8574 181.945 81.043 181.945C79.2286 181.945 77.4142 179.908 77.4142 177.871C77.4142 175.835 79.2286 173.798 81.043 173.798C82.8574 173.119 84.6718 175.156 84.6718 177.871Z" fill="#E5E5E5"/>
<path d="M162.086 177.871C162.086 179.908 160.272 181.945 158.457 181.945C156.643 181.945 154.828 179.908 154.828 177.871C154.828 175.835 156.643 173.798 158.457 173.798C160.272 173.119 162.086 175.156 162.086 177.871Z" fill="#E5E5E5"/>
<path d="M239.5 177.871C239.5 179.908 237.686 181.945 235.872 181.945C234.057 181.945 232.243 179.908 232.243 177.871C232.243 175.835 234.057 173.798 235.872 173.798C237.686 173.119 239.5 175.156 239.5 177.871Z" fill="#E5E5E5"/>
<path d="M316.31 177.871C316.31 179.908 314.495 181.945 312.681 181.945C310.867 181.945 309.052 179.908 309.052 177.871C309.052 175.835 310.867 173.798 312.681 173.798C314.495 173.119 316.31 175.156 316.31 177.871Z" fill="#E5E5E5"/>
<path d="M393.724 177.872C393.724 179.909 391.91 181.946 390.095 181.946C388.281 181.946 386.467 179.909 386.467 177.872C386.467 175.836 388.281 173.799 390.095 173.799C391.91 173.799 393.724 175.157 393.724 177.872Z" fill="#E5E5E5"/>
<path d="M471.138 177.872C471.138 179.909 469.324 181.946 467.51 181.946C465.695 181.946 463.881 179.909 463.881 177.872C463.881 175.836 465.695 173.799 467.51 173.799C469.324 173.799 471.138 175.157 471.138 177.872Z" fill="#E5E5E5"/>
<path d="M547.948 177.871C547.948 179.908 546.133 181.945 544.319 181.945C542.505 181.945 540.69 179.908 540.69 177.871C540.69 175.835 542.505 173.798 544.319 173.798C546.738 173.119 547.948 175.156 547.948 177.871Z" fill="#E5E5E5"/>
<path d="M625.362 177.871C625.362 179.908 623.548 181.945 621.733 181.945C619.919 181.945 618.104 179.908 618.104 177.871C618.104 175.835 619.919 173.798 621.733 173.798C623.548 173.119 625.362 175.156 625.362 177.871Z" fill="#E5E5E5"/>
<path d="M702.776 177.871C702.776 179.908 700.962 181.945 699.148 181.945C697.333 181.945 695.519 179.908 695.519 177.871C695.519 175.835 697.333 173.798 699.148 173.798C700.962 173.119 702.776 175.156 702.776 177.871Z" fill="#E5E5E5"/>
<path d="M780.19 177.871C780.19 179.908 778.376 181.945 776.562 181.945C774.747 181.945 772.933 179.908 772.933 177.871C772.933 175.835 774.747 173.798 776.562 173.798C778.376 173.119 780.19 175.156 780.19 177.871Z" fill="#E5E5E5"/>
<path d="M857 177.871C857 179.908 855.186 181.945 853.371 181.945C851.557 181.945 849.742 179.908 849.742 177.871C849.742 175.835 851.557 173.798 853.371 173.798C855.79 173.119 857 175.156 857 177.871Z" fill="#E5E5E5"/>
<path d="M7.25759 264.092C7.25759 266.129 5.44319 268.165 3.62879 268.165C1.8144 268.165 0 266.808 0 264.092C0 262.055 1.8144 260.019 3.62879 260.019C5.44319 260.019 7.25759 262.055 7.25759 264.092Z" fill="#E5E5E5"/>
<path d="M84.6718 264.092C84.6718 266.129 82.8574 268.165 81.043 268.165C79.2286 268.165 77.4142 266.129 77.4142 264.092C77.4142 262.055 79.2286 260.019 81.043 260.019C82.8574 260.019 84.6718 262.055 84.6718 264.092Z" fill="#E5E5E5"/>
<path d="M162.086 264.092C162.086 266.129 160.272 268.165 158.457 268.165C156.643 268.165 154.828 266.129 154.828 264.092C154.828 262.055 156.643 260.019 158.457 260.019C160.272 260.019 162.086 262.055 162.086 264.092Z" fill="#E5E5E5"/>
<path d="M239.5 264.092C239.5 266.129 237.686 268.165 235.872 268.165C234.057 268.165 232.243 266.129 232.243 264.092C232.243 262.055 234.057 260.019 235.872 260.019C237.686 260.019 239.5 262.055 239.5 264.092Z" fill="#E5E5E5"/>
<path d="M316.31 264.092C316.31 266.129 314.495 268.165 312.681 268.165C310.867 268.165 309.052 266.129 309.052 264.092C309.052 262.055 310.867 260.019 312.681 260.019C314.495 260.019 316.31 262.055 316.31 264.092Z" fill="#E5E5E5"/>
<path d="M393.724 264.092C393.724 266.129 391.91 268.165 390.095 268.165C388.281 268.165 386.467 266.129 386.467 264.092C386.467 262.055 388.281 260.019 390.095 260.019C391.91 260.019 393.724 262.055 393.724 264.092Z" fill="#E5E5E5"/>
<path d="M471.138 264.092C471.138 266.129 469.324 268.165 467.51 268.165C465.695 268.165 463.881 266.129 463.881 264.092C463.881 262.055 465.695 260.019 467.51 260.019C469.324 260.019 471.138 262.055 471.138 264.092Z" fill="#E5E5E5"/>
<path d="M547.948 264.092C547.948 266.129 546.133 268.165 544.319 268.165C542.505 268.165 540.69 266.129 540.69 264.092C540.69 262.055 542.505 260.019 544.319 260.019C546.738 260.019 547.948 262.055 547.948 264.092Z" fill="#E5E5E5"/>
<path d="M625.362 264.092C625.362 266.129 623.548 268.165 621.733 268.165C619.919 268.165 618.104 266.129 618.104 264.092C618.104 262.055 619.919 260.019 621.733 260.019C623.548 260.019 625.362 262.055 625.362 264.092Z" fill="#E5E5E5"/>
<path d="M702.776 264.092C702.776 266.129 700.962 268.165 699.148 268.165C697.333 268.165 695.519 266.129 695.519 264.092C695.519 262.055 697.333 260.019 699.148 260.019C700.962 260.019 702.776 262.055 702.776 264.092Z" fill="#E5E5E5"/>
<path d="M780.19 264.092C780.19 266.129 778.376 268.165 776.562 268.165C774.747 268.165 772.933 266.129 772.933 264.092C772.933 262.055 774.747 260.019 776.562 260.019C778.376 260.019 780.19 262.055 780.19 264.092Z" fill="#E5E5E5"/>
<path d="M857 264.092C857 266.129 855.186 268.165 853.371 268.165C851.557 268.165 849.742 266.129 849.742 264.092C849.742 262.055 851.557 260.019 853.371 260.019C855.79 260.019 857 262.055 857 264.092Z" fill="#E5E5E5"/>
<path d="M7.25759 350.991C7.25759 353.028 5.44319 355.065 3.62879 355.065C1.8144 355.065 0 353.028 0 350.991C0 348.954 1.8144 346.918 3.62879 346.918C5.44319 346.918 7.25759 348.954 7.25759 350.991Z" fill="#E5E5E5"/>
<path d="M84.6718 350.991C84.6718 353.028 82.8574 355.065 81.043 355.065C79.2286 355.065 77.4142 353.028 77.4142 350.991C77.4142 348.954 79.2286 346.918 81.043 346.918C82.8574 346.918 84.6718 348.954 84.6718 350.991Z" fill="#E5E5E5"/>
<path d="M162.086 350.991C162.086 353.028 160.272 355.065 158.457 355.065C156.643 355.065 154.828 353.028 154.828 350.991C154.828 348.954 156.643 346.918 158.457 346.918C160.272 346.918 162.086 348.954 162.086 350.991Z" fill="#E5E5E5"/>
<path d="M239.5 350.991C239.5 353.028 237.686 355.065 235.872 355.065C234.057 355.065 232.243 353.028 232.243 350.991C232.243 348.954 234.057 346.918 235.872 346.918C237.686 346.918 239.5 348.954 239.5 350.991Z" fill="#E5E5E5"/>
<path d="M316.31 350.991C316.31 353.028 314.495 355.065 312.681 355.065C310.867 355.065 309.052 353.028 309.052 350.991C309.052 348.954 310.867 346.918 312.681 346.918C314.495 346.918 316.31 348.954 316.31 350.991Z" fill="#E5E5E5"/>
<path d="M393.724 350.991C393.724 353.028 391.91 355.065 390.095 355.065C388.281 355.065 386.467 353.028 386.467 350.991C386.467 348.954 388.281 346.918 390.095 346.918C391.91 346.918 393.724 348.954 393.724 350.991Z" fill="#E5E5E5"/>
<path d="M471.138 350.991C471.138 353.028 469.324 355.065 467.51 355.065C465.695 355.065 463.881 353.028 463.881 350.991C463.881 348.954 465.695 346.918 467.51 346.918C469.324 346.918 471.138 348.954 471.138 350.991Z" fill="#E5E5E5"/>
<path d="M547.948 350.991C547.948 353.028 546.133 355.065 544.319 355.065C542.505 355.065 540.69 353.028 540.69 350.991C540.69 348.954 542.505 346.918 544.319 346.918C546.738 346.918 547.948 348.954 547.948 350.991Z" fill="#E5E5E5"/>
<path d="M625.362 350.991C625.362 353.028 623.548 355.065 621.733 355.065C619.919 355.065 618.104 353.028 618.104 350.991C618.104 348.954 619.919 346.918 621.733 346.918C623.548 346.918 625.362 348.954 625.362 350.991Z" fill="#E5E5E5"/>
<path d="M702.776 350.991C702.776 353.028 700.962 355.065 699.148 355.065C697.333 355.065 695.519 353.028 695.519 350.991C695.519 348.954 697.333 346.918 699.148 346.918C700.962 346.918 702.776 348.954 702.776 350.991Z" fill="#E5E5E5"/>
<path d="M780.19 350.991C780.19 353.028 778.376 355.065 776.562 355.065C774.747 355.065 772.933 353.028 772.933 350.991C772.933 348.954 774.747 346.918 776.562 346.918C778.376 346.918 780.19 348.954 780.19 350.991Z" fill="#E5E5E5"/>
<path d="M857 350.991C857 353.028 855.186 355.065 853.371 355.065C851.557 355.065 849.742 353.028 849.742 350.991C849.742 348.954 851.557 346.918 853.371 346.918C855.79 346.918 857 348.954 857 350.991Z" fill="#E5E5E5"/>
<path d="M7.25759 437.89C7.25759 439.926 5.44319 441.963 3.62879 441.963C1.8144 441.963 0 439.926 0 437.89C0 435.853 1.8144 433.816 3.62879 433.816C5.44319 433.816 7.25759 435.174 7.25759 437.89Z" fill="#E5E5E5"/>
<path d="M84.6718 437.89C84.6718 439.926 82.8574 441.963 81.043 441.963C79.2286 441.963 77.4142 439.926 77.4142 437.89C77.4142 435.853 79.2286 433.816 81.043 433.816C82.8574 433.816 84.6718 435.174 84.6718 437.89Z" fill="#E5E5E5"/>
<path d="M162.086 437.89C162.086 439.926 160.272 441.963 158.457 441.963C156.643 441.963 154.828 439.926 154.828 437.89C154.828 435.853 156.643 433.816 158.457 433.816C160.272 433.816 162.086 435.174 162.086 437.89Z" fill="#E5E5E5"/>
<path d="M239.5 437.89C239.5 439.926 237.686 441.963 235.872 441.963C234.057 441.963 232.243 439.926 232.243 437.89C232.243 435.853 234.057 433.816 235.872 433.816C237.686 433.816 239.5 435.174 239.5 437.89Z" fill="#E5E5E5"/>
<path d="M316.31 437.89C316.31 439.926 314.495 441.963 312.681 441.963C310.867 441.963 309.052 439.926 309.052 437.89C309.052 435.853 310.867 433.816 312.681 433.816C314.495 433.816 316.31 435.174 316.31 437.89Z" fill="#E5E5E5"/>
<path d="M393.724 437.89C393.724 439.926 391.91 441.963 390.095 441.963C388.281 441.963 386.467 439.926 386.467 437.89C386.467 435.853 388.281 433.816 390.095 433.816C391.91 433.816 393.724 435.174 393.724 437.89Z" fill="#E5E5E5"/>
<path d="M471.138 437.89C471.138 439.926 469.324 441.963 467.51 441.963C465.695 441.963 463.881 439.926 463.881 437.89C463.881 435.853 465.695 433.816 467.51 433.816C469.324 433.816 471.138 435.174 471.138 437.89Z" fill="#E5E5E5"/>
<path d="M547.948 437.89C547.948 439.926 546.133 441.963 544.319 441.963C542.505 441.963 540.69 439.926 540.69 437.89C540.69 435.853 542.505 433.816 544.319 433.816C546.738 433.816 547.948 435.174 547.948 437.89Z" fill="#E5E5E5"/>
<path d="M625.362 437.89C625.362 439.926 623.548 441.963 621.733 441.963C619.919 441.963 618.104 439.926 618.104 437.89C618.104 435.853 619.919 433.816 621.733 433.816C623.548 433.816 625.362 435.174 625.362 437.89Z" fill="#E5E5E5"/>
<path d="M702.776 437.89C702.776 439.926 700.962 441.963 699.148 441.963C697.333 441.963 695.519 439.926 695.519 437.89C695.519 435.853 697.333 433.816 699.148 433.816C700.962 433.816 702.776 435.174 702.776 437.89Z" fill="#E5E5E5"/>
<path d="M780.19 437.89C780.19 439.926 778.376 441.963 776.562 441.963C774.747 441.963 772.933 439.926 772.933 437.89C772.933 435.853 774.747 433.816 776.562 433.816C778.376 433.816 780.19 435.174 780.19 437.89Z" fill="#E5E5E5"/>
<path d="M857 437.89C857 439.926 855.186 441.963 853.371 441.963C851.557 441.963 849.742 439.926 849.742 437.89C849.742 435.853 851.557 433.816 853.371 433.816C855.79 433.816 857 435.174 857 437.89Z" fill="#E5E5E5"/>
<path d="M7.25759 524.789C7.25759 526.826 5.44319 528.862 3.62879 528.862C1.8144 528.862 0 526.826 0 524.789C0 522.752 1.8144 520.715 3.62879 520.715C5.44319 520.715 7.25759 522.073 7.25759 524.789Z" fill="#E5E5E5"/>
<path d="M84.6718 524.789C84.6718 526.826 82.8574 528.863 81.043 528.863C79.2286 528.863 77.4142 526.826 77.4142 524.789C77.4142 522.753 79.2286 520.716 81.043 520.716C82.8574 520.037 84.6718 522.074 84.6718 524.789Z" fill="#E5E5E5"/>
<path d="M162.086 524.789C162.086 526.826 160.272 528.863 158.457 528.863C156.643 528.863 154.828 526.826 154.828 524.789C154.828 522.753 156.643 520.716 158.457 520.716C160.272 520.037 162.086 522.074 162.086 524.789Z" fill="#E5E5E5"/>
<path d="M239.5 524.789C239.5 526.826 237.686 528.863 235.872 528.863C234.057 528.863 232.243 526.826 232.243 524.789C232.243 522.753 234.057 520.716 235.872 520.716C237.686 520.037 239.5 522.074 239.5 524.789Z" fill="#E5E5E5"/>
<path d="M316.31 524.789C316.31 526.826 314.495 528.863 312.681 528.863C310.867 528.863 309.052 526.826 309.052 524.789C309.052 522.753 310.867 520.716 312.681 520.716C314.495 520.037 316.31 522.074 316.31 524.789Z" fill="#E5E5E5"/>
<path d="M393.724 524.789C393.724 526.826 391.91 528.862 390.095 528.862C388.281 528.862 386.467 526.826 386.467 524.789C386.467 522.752 388.281 520.715 390.095 520.715C391.91 520.715 393.724 522.073 393.724 524.789Z" fill="#E5E5E5"/>
<path d="M471.138 524.789C471.138 526.826 469.324 528.862 467.51 528.862C465.695 528.862 463.881 526.826 463.881 524.789C463.881 522.752 465.695 520.715 467.51 520.715C469.324 520.715 471.138 522.073 471.138 524.789Z" fill="#E5E5E5"/>
<path d="M547.948 524.789C547.948 526.826 546.133 528.863 544.319 528.863C542.505 528.863 540.69 526.826 540.69 524.789C540.69 522.753 542.505 520.716 544.319 520.716C546.738 520.037 547.948 522.074 547.948 524.789Z" fill="#E5E5E5"/>
<path d="M625.362 524.789C625.362 526.826 623.548 528.863 621.733 528.863C619.919 528.863 618.104 526.826 618.104 524.789C618.104 522.753 619.919 520.716 621.733 520.716C623.548 520.037 625.362 522.074 625.362 524.789Z" fill="#E5E5E5"/>
<path d="M702.776 524.789C702.776 526.826 700.962 528.863 699.148 528.863C697.333 528.863 695.519 526.826 695.519 524.789C695.519 522.753 697.333 520.716 699.148 520.716C700.962 520.037 702.776 522.074 702.776 524.789Z" fill="#E5E5E5"/>
<path d="M780.19 524.789C780.19 526.826 778.376 528.863 776.562 528.863C774.747 528.863 772.933 526.826 772.933 524.789C772.933 522.753 774.747 520.716 776.562 520.716C778.376 520.037 780.19 522.074 780.19 524.789Z" fill="#E5E5E5"/>
<path d="M857 524.789C857 526.826 855.186 528.863 853.371 528.863C851.557 528.863 849.742 526.826 849.742 524.789C849.742 522.753 851.557 520.716 853.371 520.716C855.79 520.037 857 522.074 857 524.789Z" fill="#E5E5E5"/>
<path d="M7.25759 611.009C7.25759 613.045 5.44319 615.082 3.62879 615.082C1.8144 615.082 0 613.724 0 611.009C0 608.972 1.8144 606.935 3.62879 606.935C5.44319 606.935 7.25759 608.972 7.25759 611.009Z" fill="#E5E5E5"/>
<path d="M84.6718 611.009C84.6718 613.045 82.8574 615.082 81.043 615.082C79.2286 615.082 77.4142 613.045 77.4142 611.009C77.4142 608.972 79.2286 606.935 81.043 606.935C82.8574 606.935 84.6718 608.972 84.6718 611.009Z" fill="#E5E5E5"/>
<path d="M162.086 611.009C162.086 613.045 160.272 615.082 158.457 615.082C156.643 615.082 154.828 613.045 154.828 611.009C154.828 608.972 156.643 606.935 158.457 606.935C160.272 606.935 162.086 608.972 162.086 611.009Z" fill="#E5E5E5"/>
<path d="M239.5 611.009C239.5 613.045 237.686 615.082 235.872 615.082C234.057 615.082 232.243 613.045 232.243 611.009C232.243 608.972 234.057 606.935 235.872 606.935C237.686 606.935 239.5 608.972 239.5 611.009Z" fill="#E5E5E5"/>
<path d="M316.31 611.009C316.31 613.045 314.495 615.082 312.681 615.082C310.867 615.082 309.052 613.045 309.052 611.009C309.052 608.972 310.867 606.935 312.681 606.935C314.495 606.935 316.31 608.972 316.31 611.009Z" fill="#E5E5E5"/>
<path d="M393.724 611.009C393.724 613.045 391.91 615.082 390.095 615.082C388.281 615.082 386.467 613.045 386.467 611.009C386.467 608.972 388.281 606.935 390.095 606.935C391.91 606.935 393.724 608.972 393.724 611.009Z" fill="#E5E5E5"/>
<path d="M471.138 611.009C471.138 613.045 469.324 615.082 467.51 615.082C465.695 615.082 463.881 613.045 463.881 611.009C463.881 608.972 465.695 606.935 467.51 606.935C469.324 606.935 471.138 608.972 471.138 611.009Z" fill="#E5E5E5"/>
<path d="M547.948 611.009C547.948 613.045 546.133 615.082 544.319 615.082C542.505 615.082 540.69 613.045 540.69 611.009C540.69 608.972 542.505 606.935 544.319 606.935C546.738 606.935 547.948 608.972 547.948 611.009Z" fill="#E5E5E5"/>
<path d="M625.362 611.009C625.362 613.045 623.548 615.082 621.733 615.082C619.919 615.082 618.104 613.045 618.104 611.009C618.104 608.972 619.919 606.935 621.733 606.935C623.548 606.935 625.362 608.972 625.362 611.009Z" fill="#E5E5E5"/>
<path d="M702.776 611.009C702.776 613.045 700.962 615.082 699.148 615.082C697.333 615.082 695.519 613.045 695.519 611.009C695.519 608.972 697.333 606.935 699.148 606.935C700.962 606.935 702.776 608.972 702.776 611.009Z" fill="#E5E5E5"/>
<path d="M780.19 611.009C780.19 613.045 778.376 615.082 776.562 615.082C774.747 615.082 772.933 613.045 772.933 611.009C772.933 608.972 774.747 606.935 776.562 606.935C778.376 606.935 780.19 608.972 780.19 611.009Z" fill="#E5E5E5"/>
<path d="M857 611.009C857 613.045 855.186 615.082 853.371 615.082C851.557 615.082 849.742 613.045 849.742 611.009C849.742 608.972 851.557 606.935 853.371 606.935C855.79 606.935 857 608.972 857 611.009Z" fill="#E5E5E5"/>
<path d="M7.25759 697.908C7.25759 699.945 5.44319 701.981 3.62879 701.981C1.8144 701.981 0 699.945 0 697.908C0 695.871 1.8144 693.835 3.62879 693.835C5.44319 693.835 7.25759 695.871 7.25759 697.908Z" fill="#E5E5E5"/>
<path d="M84.6718 697.908C84.6718 699.945 82.8574 701.981 81.043 701.981C79.2286 701.981 77.4142 699.945 77.4142 697.908C77.4142 695.871 79.2286 693.835 81.043 693.835C82.8574 693.835 84.6718 695.871 84.6718 697.908Z" fill="#E5E5E5"/>
<path d="M162.086 697.908C162.086 699.945 160.272 701.981 158.457 701.981C156.643 701.981 154.828 699.945 154.828 697.908C154.828 695.871 156.643 693.835 158.457 693.835C160.272 693.835 162.086 695.871 162.086 697.908Z" fill="#E5E5E5"/>
<path d="M239.5 697.908C239.5 699.945 237.686 701.981 235.872 701.981C234.057 701.981 232.243 699.945 232.243 697.908C232.243 695.871 234.057 693.835 235.872 693.835C237.686 693.835 239.5 695.871 239.5 697.908Z" fill="#E5E5E5"/>
<path d="M316.31 697.908C316.31 699.945 314.495 701.981 312.681 701.981C310.867 701.981 309.052 699.945 309.052 697.908C309.052 695.871 310.867 693.835 312.681 693.835C314.495 693.835 316.31 695.871 316.31 697.908Z" fill="#E5E5E5"/>
<path d="M393.724 697.908C393.724 699.945 391.91 701.981 390.095 701.981C388.281 701.981 386.467 699.945 386.467 697.908C386.467 695.871 388.281 693.835 390.095 693.835C391.91 693.835 393.724 695.871 393.724 697.908Z" fill="#E5E5E5"/>
<path d="M471.138 697.908C471.138 699.945 469.324 701.981 467.51 701.981C465.695 701.981 463.881 699.945 463.881 697.908C463.881 695.871 465.695 693.835 467.51 693.835C469.324 693.835 471.138 695.871 471.138 697.908Z" fill="#E5E5E5"/>
<path d="M547.948 697.908C547.948 699.945 546.133 701.981 544.319 701.981C542.505 701.981 540.69 699.945 540.69 697.908C540.69 695.871 542.505 693.835 544.319 693.835C546.738 693.835 547.948 695.871 547.948 697.908Z" fill="#E5E5E5"/>
<path d="M625.362 697.908C625.362 699.945 623.548 701.981 621.733 701.981C619.919 701.981 618.104 699.945 618.104 697.908C618.104 695.871 619.919 693.835 621.733 693.835C623.548 693.835 625.362 695.871 625.362 697.908Z" fill="#E5E5E5"/>
<path d="M702.776 697.908C702.776 699.945 700.962 701.981 699.148 701.981C697.333 701.981 695.519 699.945 695.519 697.908C695.519 695.871 697.333 693.835 699.148 693.835C700.962 693.835 702.776 695.871 702.776 697.908Z" fill="#E5E5E5"/>
<path d="M780.19 697.908C780.19 699.945 778.376 701.981 776.562 701.981C774.747 701.981 772.933 699.945 772.933 697.908C772.933 695.871 774.747 693.835 776.562 693.835C778.376 693.835 780.19 695.871 780.19 697.908Z" fill="#E5E5E5"/>
<path d="M857 697.908C857 699.945 855.186 701.981 853.371 701.981C851.557 701.981 849.742 699.945 849.742 697.908C849.742 695.871 851.557 693.835 853.371 693.835C855.79 693.835 857 695.871 857 697.908Z" fill="#E5E5E5"/>
<path d="M7.25759 784.807C7.25759 786.844 5.44319 788.881 3.62879 788.881C1.8144 788.881 0 786.844 0 784.807C0 782.771 1.8144 780.734 3.62879 780.734C5.44319 780.734 7.25759 782.092 7.25759 784.807Z" fill="#E5E5E5"/>
<path d="M84.6718 784.807C84.6718 786.844 82.8574 788.881 81.043 788.881C79.2286 788.881 77.4142 786.844 77.4142 784.807C77.4142 782.771 79.2286 780.734 81.043 780.734C82.8574 780.734 84.6718 782.092 84.6718 784.807Z" fill="#E5E5E5"/>
<path d="M162.086 784.807C162.086 786.844 160.272 788.881 158.457 788.881C156.643 788.881 154.828 786.844 154.828 784.807C154.828 782.771 156.643 780.734 158.457 780.734C160.272 780.734 162.086 782.092 162.086 784.807Z" fill="#E5E5E5"/>
<path d="M239.5 784.807C239.5 786.844 237.686 788.881 235.872 788.881C234.057 788.881 232.243 786.844 232.243 784.807C232.243 782.771 234.057 780.734 235.872 780.734C237.686 780.734 239.5 782.092 239.5 784.807Z" fill="#E5E5E5"/>
<path d="M316.31 784.807C316.31 786.844 314.495 788.881 312.681 788.881C310.867 788.881 309.052 786.844 309.052 784.807C309.052 782.771 310.867 780.734 312.681 780.734C314.495 780.734 316.31 782.092 316.31 784.807Z" fill="#E5E5E5"/>
<path d="M393.724 784.807C393.724 786.844 391.91 788.881 390.095 788.881C388.281 788.881 386.467 786.844 386.467 784.807C386.467 782.771 388.281 780.734 390.095 780.734C391.91 780.734 393.724 782.092 393.724 784.807Z" fill="#E5E5E5"/>
<path d="M471.138 784.807C471.138 786.844 469.324 788.881 467.51 788.881C465.695 788.881 463.881 786.844 463.881 784.807C463.881 782.771 465.695 780.734 467.51 780.734C469.324 780.734 471.138 782.092 471.138 784.807Z" fill="#E5E5E5"/>
<path d="M547.948 784.807C547.948 786.844 546.133 788.881 544.319 788.881C542.505 788.881 540.69 786.844 540.69 784.807C540.69 782.771 542.505 780.734 544.319 780.734C546.738 780.734 547.948 782.092 547.948 784.807Z" fill="#E5E5E5"/>
<path d="M625.362 784.807C625.362 786.844 623.548 788.881 621.733 788.881C619.919 788.881 618.104 786.844 618.104 784.807C618.104 782.771 619.919 780.734 621.733 780.734C623.548 780.734 625.362 782.092 625.362 784.807Z" fill="#E5E5E5"/>
<path d="M702.776 784.807C702.776 786.844 700.962 788.881 699.148 788.881C697.333 788.881 695.519 786.844 695.519 784.807C695.519 782.771 697.333 780.734 699.148 780.734C700.962 780.734 702.776 782.092 702.776 784.807Z" fill="#E5E5E5"/>
<path d="M780.19 784.807C780.19 786.844 778.376 788.881 776.562 788.881C774.747 788.881 772.933 786.844 772.933 784.807C772.933 782.771 774.747 780.734 776.562 780.734C778.376 780.734 780.19 782.092 780.19 784.807Z" fill="#E5E5E5"/>
<path d="M857 784.807C857 786.844 855.186 788.881 853.371 788.881C851.557 788.881 849.742 786.844 849.742 784.807C849.742 782.771 851.557 780.734 853.371 780.734C855.79 780.734 857 782.092 857 784.807Z" fill="#E5E5E5"/>
<path d="M7.25759 871.028C7.25759 873.064 5.44319 875.101 3.62879 875.101C1.8144 875.101 0 873.743 0 871.028C0 868.991 1.8144 866.954 3.62879 866.954C5.44319 866.954 7.25759 868.991 7.25759 871.028Z" fill="#E5E5E5"/>
<path d="M84.6718 871.028C84.6718 873.064 82.8574 875.101 81.043 875.101C79.2286 875.101 77.4142 873.064 77.4142 871.028C77.4142 868.991 79.2286 866.954 81.043 866.954C82.8574 866.954 84.6718 868.991 84.6718 871.028Z" fill="#E5E5E5"/>
<path d="M162.086 871.028C162.086 873.064 160.272 875.101 158.457 875.101C156.643 875.101 154.828 873.064 154.828 871.028C154.828 868.991 156.643 866.954 158.457 866.954C160.272 866.954 162.086 868.991 162.086 871.028Z" fill="#E5E5E5"/>
<path d="M239.5 871.028C239.5 873.064 237.686 875.101 235.872 875.101C234.057 875.101 232.243 873.064 232.243 871.028C232.243 868.991 234.057 866.954 235.872 866.954C237.686 866.954 239.5 868.991 239.5 871.028Z" fill="#E5E5E5"/>
<path d="M316.31 871.028C316.31 873.064 314.495 875.101 312.681 875.101C310.867 875.101 309.052 873.064 309.052 871.028C309.052 868.991 310.867 866.954 312.681 866.954C314.495 866.954 316.31 868.991 316.31 871.028Z" fill="#E5E5E5"/>
<path d="M393.724 871.028C393.724 873.064 391.91 875.101 390.095 875.101C388.281 875.101 386.467 873.064 386.467 871.028C386.467 868.991 388.281 866.954 390.095 866.954C391.91 866.954 393.724 868.991 393.724 871.028Z" fill="#E5E5E5"/>
<path d="M471.138 871.028C471.138 873.064 469.324 875.101 467.51 875.101C465.695 875.101 463.881 873.064 463.881 871.028C463.881 868.991 465.695 866.954 467.51 866.954C469.324 866.954 471.138 868.991 471.138 871.028Z" fill="#E5E5E5"/>
<path d="M547.948 871.028C547.948 873.064 546.133 875.101 544.319 875.101C542.505 875.101 540.69 873.064 540.69 871.028C540.69 868.991 542.505 866.954 544.319 866.954C546.738 866.954 547.948 868.991 547.948 871.028Z" fill="#E5E5E5"/>
<path d="M625.362 871.028C625.362 873.064 623.548 875.101 621.733 875.101C619.919 875.101 618.104 873.064 618.104 871.028C618.104 868.991 619.919 866.954 621.733 866.954C623.548 866.954 625.362 868.991 625.362 871.028Z" fill="#E5E5E5"/>
<path d="M702.776 871.028C702.776 873.064 700.962 875.101 699.148 875.101C697.333 875.101 695.519 873.064 695.519 871.028C695.519 868.991 697.333 866.954 699.148 866.954C700.962 866.954 702.776 868.991 702.776 871.028Z" fill="#E5E5E5"/>
<path d="M780.19 871.028C780.19 873.064 778.376 875.101 776.562 875.101C774.747 875.101 772.933 873.064 772.933 871.028C772.933 868.991 774.747 866.954 776.562 866.954C778.376 866.954 780.19 868.991 780.19 871.028Z" fill="#E5E5E5"/>
<path d="M857 871.028C857 873.064 855.186 875.101 853.371 875.101C851.557 875.101 849.742 873.064 849.742 871.028C849.742 868.991 851.557 866.954 853.371 866.954C855.79 866.954 857 868.991 857 871.028Z" fill="#E5E5E5"/>
<path d="M7.25759 957.927C7.25759 959.963 5.44319 962 3.62879 962C1.8144 962 0 960.642 0 957.927C0 955.89 1.8144 953.853 3.62879 953.853C5.44319 953.853 7.25759 955.89 7.25759 957.927Z" fill="#E5E5E5"/>
<path d="M84.6718 957.927C84.6718 959.963 82.8574 962 81.043 962C79.2286 962 77.4142 959.963 77.4142 957.927C77.4142 955.89 79.2286 953.853 81.043 953.853C82.8574 953.853 84.6718 955.89 84.6718 957.927Z" fill="#E5E5E5"/>
<path d="M162.086 957.927C162.086 959.963 160.272 962 158.457 962C156.643 962 154.828 959.963 154.828 957.927C154.828 955.89 156.643 953.853 158.457 953.853C160.272 953.853 162.086 955.89 162.086 957.927Z" fill="#E5E5E5"/>
<path d="M239.5 957.927C239.5 959.963 237.686 962 235.872 962C234.057 962 232.243 959.963 232.243 957.927C232.243 955.89 234.057 953.853 235.872 953.853C237.686 953.853 239.5 955.89 239.5 957.927Z" fill="#E5E5E5"/>
<path d="M316.31 957.927C316.31 959.963 314.495 962 312.681 962C310.867 962 309.052 959.963 309.052 957.927C309.052 955.89 310.867 953.853 312.681 953.853C314.495 953.853 316.31 955.89 316.31 957.927Z" fill="#E5E5E5"/>
<path d="M393.724 957.927C393.724 959.963 391.91 962 390.095 962C388.281 962 386.467 959.963 386.467 957.927C386.467 955.89 388.281 953.853 390.095 953.853C391.91 953.853 393.724 955.89 393.724 957.927Z" fill="#E5E5E5"/>
<path d="M471.138 957.927C471.138 959.963 469.324 962 467.51 962C465.695 962 463.881 959.963 463.881 957.927C463.881 955.89 465.695 953.853 467.51 953.853C469.324 953.853 471.138 955.89 471.138 957.927Z" fill="#E5E5E5"/>
<path d="M547.948 957.927C547.948 959.963 546.133 962 544.319 962C542.505 962 540.69 959.963 540.69 957.927C540.69 955.89 542.505 953.853 544.319 953.853C546.738 953.853 547.948 955.89 547.948 957.927Z" fill="#E5E5E5"/>
<path d="M625.362 957.927C625.362 959.963 623.548 962 621.733 962C619.919 962 618.104 959.963 618.104 957.927C618.104 955.89 619.919 953.853 621.733 953.853C623.548 953.853 625.362 955.89 625.362 957.927Z" fill="#E5E5E5"/>
<path d="M702.776 957.927C702.776 959.963 700.962 962 699.148 962C697.333 962 695.519 959.963 695.519 957.927C695.519 955.89 697.333 953.853 699.148 953.853C700.962 953.853 702.776 955.89 702.776 957.927Z" fill="#E5E5E5"/>
<path d="M780.19 957.927C780.19 959.963 778.376 962 776.562 962C774.747 962 772.933 959.963 772.933 957.927C772.933 955.89 774.747 953.853 776.562 953.853C778.376 953.853 780.19 955.89 780.19 957.927Z" fill="#E5E5E5"/>
<path d="M857 957.927C857 959.963 855.186 962 853.371 962C851.557 962 849.742 959.963 849.742 957.927C849.742 955.89 851.557 953.853 853.371 953.853C855.79 953.853 857 955.89 857 957.927Z" fill="#E5E5E5"/>
</svg>
