<svg width="962" height="962" viewBox="0 0 962 962" fill="none" xmlns="http://www.w3.org/2000/svg">
<path d="M8.14679 4.07339C8.14679 6.78899 6.78899 8.14679 4.07339 8.14679C1.3578 8.14679 0 6.78899 0 4.07339C0 2.0367 2.0367 0 4.07339 0C6.11009 0 8.14679 2.0367 8.14679 4.07339Z" fill="#E5E5E5"/>
<path d="M95.0458 4.07339C95.0458 6.11009 93.0091 8.14679 90.9724 8.14679C88.9357 8.14679 86.899 6.11009 86.899 4.07339C86.899 2.0367 88.2568 0 90.9724 0C93.0091 0 95.0458 2.0367 95.0458 4.07339Z" fill="#E5E5E5"/>
<path d="M181.945 4.07339C181.945 6.11009 179.908 8.14679 177.871 8.14679C175.835 8.14679 173.798 6.11009 173.798 4.07339C173.798 2.0367 175.835 0 177.871 0C179.908 0 181.945 2.0367 181.945 4.07339Z" fill="#E5E5E5"/>
<path d="M268.844 4.07339C268.844 6.11009 266.807 8.14679 264.771 8.14679C262.734 8.14679 260.697 6.11009 260.697 4.07339C260.697 2.0367 262.734 0 264.771 0C266.807 0 268.844 2.0367 268.844 4.07339Z" fill="#E5E5E5"/>
<path d="M355.064 4.07339C355.064 6.11009 353.027 8.14679 350.991 8.14679C348.954 8.14679 346.917 6.11009 346.917 4.07339C346.917 2.0367 348.954 0 350.991 0C353.027 0 355.064 2.0367 355.064 4.07339Z" fill="#E5E5E5"/>
<path d="M441.963 4.07339C441.963 6.11009 439.927 8.14679 437.89 8.14679C435.853 8.14679 433.817 6.78899 433.817 4.07339C433.817 2.0367 435.853 0 437.89 0C439.927 0 441.963 2.0367 441.963 4.07339Z" fill="#E5E5E5"/>
<path d="M528.862 4.07339C528.862 6.11009 526.826 8.14679 524.789 8.14679C522.752 8.14679 520.037 6.78899 520.037 4.07339C520.037 2.0367 522.073 0 524.11 0C526.147 0 528.862 2.0367 528.862 4.07339Z" fill="#E5E5E5"/>
<path d="M615.083 4.07339C615.083 6.11009 613.046 8.14679 611.009 8.14679C608.973 8.14679 606.936 6.11009 606.936 4.07339C606.936 2.0367 608.973 0 611.009 0C613.725 0 615.083 2.0367 615.083 4.07339Z" fill="#E5E5E5"/>
<path d="M701.982 4.07339C701.982 6.11009 699.945 8.14679 697.908 8.14679C695.872 8.14679 693.835 6.11009 693.835 4.07339C693.835 2.0367 695.872 0 697.908 0C699.945 0 701.982 2.0367 701.982 4.07339Z" fill="#E5E5E5"/>
<path d="M788.881 4.07339C788.881 6.11009 786.844 8.14679 784.807 8.14679C782.771 8.14679 780.734 6.11009 780.734 4.07339C780.734 2.0367 782.771 0 784.807 0C786.844 0 788.881 2.0367 788.881 4.07339Z" fill="#E5E5E5"/>
<path d="M875.78 4.07339C875.78 6.11009 873.743 8.14679 871.706 8.14679C869.67 8.14679 867.633 6.11009 867.633 4.07339C867.633 2.0367 869.67 0 871.706 0C873.743 0 875.78 2.0367 875.78 4.07339Z" fill="#E5E5E5"/>
<path d="M962 4.07339C962 6.11009 959.963 8.14679 957.927 8.14679C955.89 8.14679 953.853 6.11009 953.853 4.07339C953.853 2.0367 955.89 0 957.927 0C960.642 0 962 2.0367 962 4.07339Z" fill="#E5E5E5"/>
<path d="M8.14679 90.9728C8.14679 93.0095 6.78899 95.0462 4.07339 95.0462C1.3578 95.0462 0 93.0095 0 90.9728C0 88.9361 2.0367 86.8994 4.07339 86.8994C6.11009 86.8994 8.14679 88.2572 8.14679 90.9728Z" fill="#E5E5E5"/>
<path d="M95.0458 90.9728C95.0458 93.0095 93.0091 95.0462 90.9724 95.0462C88.9357 95.0462 86.899 93.0095 86.899 90.9728C86.899 88.9361 88.9357 86.8994 90.9724 86.8994C93.0091 86.8994 95.0458 88.2572 95.0458 90.9728Z" fill="#E5E5E5"/>
<path d="M181.945 90.9728C181.945 93.0095 179.908 95.0462 177.871 95.0462C175.835 95.0462 173.798 93.0095 173.798 90.9728C173.798 88.9361 175.835 86.8994 177.871 86.8994C179.908 86.8994 181.945 88.2572 181.945 90.9728Z" fill="#E5E5E5"/>
<path d="M268.844 90.9728C268.844 93.0095 266.807 95.0462 264.771 95.0462C262.734 95.0462 260.697 93.0095 260.697 90.9728C260.697 88.9361 262.734 86.8994 264.771 86.8994C266.807 86.8994 268.844 88.2572 268.844 90.9728Z" fill="#E5E5E5"/>
<path d="M355.064 90.9728C355.064 93.0095 353.027 95.0462 350.991 95.0462C348.954 95.0462 346.917 93.0095 346.917 90.9728C346.917 88.9361 348.954 86.8994 350.991 86.8994C353.027 86.8994 355.064 88.2572 355.064 90.9728Z" fill="#E5E5E5"/>
<path d="M441.963 90.9728C441.963 93.0095 439.927 95.0462 437.89 95.0462C435.853 95.0462 433.817 93.0095 433.817 90.9728C433.817 88.9361 435.853 86.8994 437.89 86.8994C439.927 86.8994 441.963 88.2572 441.963 90.9728Z" fill="#E5E5E5"/>
<path d="M528.862 90.9728C528.862 93.0095 526.826 95.0462 524.789 95.0462C522.752 95.0462 520.716 93.0095 520.716 90.9728C520.716 88.9361 522.752 86.8994 524.789 86.8994C526.826 86.8994 528.862 88.2572 528.862 90.9728Z" fill="#E5E5E5"/>
<path d="M615.083 90.9728C615.083 93.0095 613.046 95.0462 611.009 95.0462C608.973 95.0462 606.936 93.0095 606.936 90.9728C606.936 88.9361 608.973 86.8994 611.009 86.8994C613.725 86.8994 615.083 88.2572 615.083 90.9728Z" fill="#E5E5E5"/>
<path d="M701.982 90.9728C701.982 93.0095 699.945 95.0462 697.908 95.0462C695.872 95.0462 693.835 93.0095 693.835 90.9728C693.835 88.9361 695.872 86.8994 697.908 86.8994C699.945 86.8994 701.982 88.2572 701.982 90.9728Z" fill="#E5E5E5"/>
<path d="M788.881 90.9728C788.881 93.0095 786.844 95.0462 784.807 95.0462C782.771 95.0462 780.734 93.0095 780.734 90.9728C780.734 88.9361 782.771 86.8994 784.807 86.8994C786.844 86.8994 788.881 88.2572 788.881 90.9728Z" fill="#E5E5E5"/>
<path d="M875.78 90.9728C875.78 93.0095 873.743 95.0462 871.706 95.0462C869.67 95.0462 867.633 93.0095 867.633 90.9728C867.633 88.9361 869.67 86.8994 871.706 86.8994C873.743 86.8994 875.78 88.2572 875.78 90.9728Z" fill="#E5E5E5"/>
<path d="M962 90.9728C962 93.0095 959.963 95.0462 957.927 95.0462C955.89 95.0462 953.853 93.0095 953.853 90.9728C953.853 88.9361 955.89 86.8994 957.927 86.8994C960.642 86.8994 962 88.2572 962 90.9728Z" fill="#E5E5E5"/>
<path d="M8.14679 177.872C8.14679 179.909 6.11009 181.946 4.07339 181.946C2.0367 181.946 0 179.909 0 177.872C0 175.836 2.0367 173.799 4.07339 173.799C6.11009 173.799 8.14679 175.157 8.14679 177.872Z" fill="#E5E5E5"/>
<path d="M95.0458 177.871C95.0458 179.908 93.0091 181.945 90.9724 181.945C88.9357 181.945 86.899 179.908 86.899 177.871C86.899 175.835 88.9357 173.798 90.9724 173.798C93.0091 173.119 95.0458 175.156 95.0458 177.871Z" fill="#E5E5E5"/>
<path d="M181.945 177.871C181.945 179.908 179.908 181.945 177.871 181.945C175.835 181.945 173.798 179.908 173.798 177.871C173.798 175.835 175.835 173.798 177.871 173.798C179.908 173.119 181.945 175.156 181.945 177.871Z" fill="#E5E5E5"/>
<path d="M268.844 177.871C268.844 179.908 266.807 181.945 264.771 181.945C262.734 181.945 260.697 179.908 260.697 177.871C260.697 175.835 262.734 173.798 264.771 173.798C266.807 173.119 268.844 175.156 268.844 177.871Z" fill="#E5E5E5"/>
<path d="M355.064 177.871C355.064 179.908 353.027 181.945 350.991 181.945C348.954 181.945 346.917 179.908 346.917 177.871C346.917 175.835 348.954 173.798 350.991 173.798C353.027 173.119 355.064 175.156 355.064 177.871Z" fill="#E5E5E5"/>
<path d="M441.963 177.872C441.963 179.909 439.927 181.946 437.89 181.946C435.853 181.946 433.817 179.909 433.817 177.872C433.817 175.836 435.853 173.799 437.89 173.799C439.927 173.799 441.963 175.157 441.963 177.872Z" fill="#E5E5E5"/>
<path d="M528.862 177.872C528.862 179.909 526.826 181.946 524.789 181.946C522.752 181.946 520.716 179.909 520.716 177.872C520.716 175.836 522.752 173.799 524.789 173.799C526.826 173.799 528.862 175.157 528.862 177.872Z" fill="#E5E5E5"/>
<path d="M615.083 177.871C615.083 179.908 613.046 181.945 611.009 181.945C608.973 181.945 606.936 179.908 606.936 177.871C606.936 175.835 608.973 173.798 611.009 173.798C613.725 173.119 615.083 175.156 615.083 177.871Z" fill="#E5E5E5"/>
<path d="M701.982 177.871C701.982 179.908 699.945 181.945 697.908 181.945C695.872 181.945 693.835 179.908 693.835 177.871C693.835 175.835 695.872 173.798 697.908 173.798C699.945 173.119 701.982 175.156 701.982 177.871Z" fill="#E5E5E5"/>
<path d="M788.881 177.871C788.881 179.908 786.844 181.945 784.807 181.945C782.771 181.945 780.734 179.908 780.734 177.871C780.734 175.835 782.771 173.798 784.807 173.798C786.844 173.119 788.881 175.156 788.881 177.871Z" fill="#E5E5E5"/>
<path d="M875.78 177.871C875.78 179.908 873.743 181.945 871.706 181.945C869.67 181.945 867.633 179.908 867.633 177.871C867.633 175.835 869.67 173.798 871.706 173.798C873.743 173.119 875.78 175.156 875.78 177.871Z" fill="#E5E5E5"/>
<path d="M962 177.871C962 179.908 959.963 181.945 957.927 181.945C955.89 181.945 953.853 179.908 953.853 177.871C953.853 175.835 955.89 173.798 957.927 173.798C960.642 173.119 962 175.156 962 177.871Z" fill="#E5E5E5"/>
<path d="M8.14679 264.092C8.14679 266.129 6.11009 268.165 4.07339 268.165C2.0367 268.165 0 266.808 0 264.092C0 262.055 2.0367 260.019 4.07339 260.019C6.11009 260.019 8.14679 262.055 8.14679 264.092Z" fill="#E5E5E5"/>
<path d="M95.0458 264.092C95.0458 266.129 93.0091 268.165 90.9724 268.165C88.9357 268.165 86.899 266.129 86.899 264.092C86.899 262.055 88.9357 260.019 90.9724 260.019C93.0091 260.019 95.0458 262.055 95.0458 264.092Z" fill="#E5E5E5"/>
<path d="M181.945 264.092C181.945 266.129 179.908 268.165 177.871 268.165C175.835 268.165 173.798 266.129 173.798 264.092C173.798 262.055 175.835 260.019 177.871 260.019C179.908 260.019 181.945 262.055 181.945 264.092Z" fill="#E5E5E5"/>
<path d="M268.844 264.092C268.844 266.129 266.807 268.165 264.771 268.165C262.734 268.165 260.697 266.129 260.697 264.092C260.697 262.055 262.734 260.019 264.771 260.019C266.807 260.019 268.844 262.055 268.844 264.092Z" fill="#E5E5E5"/>
<path d="M355.064 264.092C355.064 266.129 353.027 268.165 350.991 268.165C348.954 268.165 346.917 266.129 346.917 264.092C346.917 262.055 348.954 260.019 350.991 260.019C353.027 260.019 355.064 262.055 355.064 264.092Z" fill="#E5E5E5"/>
<path d="M441.963 264.092C441.963 266.129 439.927 268.165 437.89 268.165C435.853 268.165 433.817 266.129 433.817 264.092C433.817 262.055 435.853 260.019 437.89 260.019C439.927 260.019 441.963 262.055 441.963 264.092Z" fill="#E5E5E5"/>
<path d="M528.862 264.092C528.862 266.129 526.826 268.165 524.789 268.165C522.752 268.165 520.716 266.129 520.716 264.092C520.716 262.055 522.752 260.019 524.789 260.019C526.826 260.019 528.862 262.055 528.862 264.092Z" fill="#E5E5E5"/>
<path d="M615.083 264.092C615.083 266.129 613.046 268.165 611.009 268.165C608.973 268.165 606.936 266.129 606.936 264.092C606.936 262.055 608.973 260.019 611.009 260.019C613.725 260.019 615.083 262.055 615.083 264.092Z" fill="#E5E5E5"/>
<path d="M701.982 264.092C701.982 266.129 699.945 268.165 697.908 268.165C695.872 268.165 693.835 266.129 693.835 264.092C693.835 262.055 695.872 260.019 697.908 260.019C699.945 260.019 701.982 262.055 701.982 264.092Z" fill="#E5E5E5"/>
<path d="M788.881 264.092C788.881 266.129 786.844 268.165 784.807 268.165C782.771 268.165 780.734 266.129 780.734 264.092C780.734 262.055 782.771 260.019 784.807 260.019C786.844 260.019 788.881 262.055 788.881 264.092Z" fill="#E5E5E5"/>
<path d="M875.78 264.092C875.78 266.129 873.743 268.165 871.706 268.165C869.67 268.165 867.633 266.129 867.633 264.092C867.633 262.055 869.67 260.019 871.706 260.019C873.743 260.019 875.78 262.055 875.78 264.092Z" fill="#E5E5E5"/>
<path d="M962 264.092C962 266.129 959.963 268.165 957.927 268.165C955.89 268.165 953.853 266.129 953.853 264.092C953.853 262.055 955.89 260.019 957.927 260.019C960.642 260.019 962 262.055 962 264.092Z" fill="#E5E5E5"/>
<path d="M8.14679 350.991C8.14679 353.028 6.11009 355.065 4.07339 355.065C2.0367 355.065 0 353.028 0 350.991C0 348.954 2.0367 346.918 4.07339 346.918C6.11009 346.918 8.14679 348.954 8.14679 350.991Z" fill="#E5E5E5"/>
<path d="M95.0458 350.991C95.0458 353.028 93.0091 355.065 90.9724 355.065C88.9357 355.065 86.899 353.028 86.899 350.991C86.899 348.954 88.9357 346.918 90.9724 346.918C93.0091 346.918 95.0458 348.954 95.0458 350.991Z" fill="#E5E5E5"/>
<path d="M181.945 350.991C181.945 353.028 179.908 355.065 177.871 355.065C175.835 355.065 173.798 353.028 173.798 350.991C173.798 348.954 175.835 346.918 177.871 346.918C179.908 346.918 181.945 348.954 181.945 350.991Z" fill="#E5E5E5"/>
<path d="M268.844 350.991C268.844 353.028 266.807 355.065 264.771 355.065C262.734 355.065 260.697 353.028 260.697 350.991C260.697 348.954 262.734 346.918 264.771 346.918C266.807 346.918 268.844 348.954 268.844 350.991Z" fill="#E5E5E5"/>
<path d="M355.064 350.991C355.064 353.028 353.027 355.065 350.991 355.065C348.954 355.065 346.917 353.028 346.917 350.991C346.917 348.954 348.954 346.918 350.991 346.918C353.027 346.918 355.064 348.954 355.064 350.991Z" fill="#E5E5E5"/>
<path d="M441.963 350.991C441.963 353.028 439.927 355.065 437.89 355.065C435.853 355.065 433.817 353.028 433.817 350.991C433.817 348.954 435.853 346.918 437.89 346.918C439.927 346.918 441.963 348.954 441.963 350.991Z" fill="#E5E5E5"/>
<path d="M528.862 350.991C528.862 353.028 526.826 355.065 524.789 355.065C522.752 355.065 520.716 353.028 520.716 350.991C520.716 348.954 522.752 346.918 524.789 346.918C526.826 346.918 528.862 348.954 528.862 350.991Z" fill="#E5E5E5"/>
<path d="M615.083 350.991C615.083 353.028 613.046 355.065 611.009 355.065C608.973 355.065 606.936 353.028 606.936 350.991C606.936 348.954 608.973 346.918 611.009 346.918C613.725 346.918 615.083 348.954 615.083 350.991Z" fill="#E5E5E5"/>
<path d="M701.982 350.991C701.982 353.028 699.945 355.065 697.908 355.065C695.872 355.065 693.835 353.028 693.835 350.991C693.835 348.954 695.872 346.918 697.908 346.918C699.945 346.918 701.982 348.954 701.982 350.991Z" fill="#E5E5E5"/>
<path d="M788.881 350.991C788.881 353.028 786.844 355.065 784.807 355.065C782.771 355.065 780.734 353.028 780.734 350.991C780.734 348.954 782.771 346.918 784.807 346.918C786.844 346.918 788.881 348.954 788.881 350.991Z" fill="#E5E5E5"/>
<path d="M875.78 350.991C875.78 353.028 873.743 355.065 871.706 355.065C869.67 355.065 867.633 353.028 867.633 350.991C867.633 348.954 869.67 346.918 871.706 346.918C873.743 346.918 875.78 348.954 875.78 350.991Z" fill="#E5E5E5"/>
<path d="M962 350.991C962 353.028 959.963 355.065 957.927 355.065C955.89 355.065 953.853 353.028 953.853 350.991C953.853 348.954 955.89 346.918 957.927 346.918C960.642 346.918 962 348.954 962 350.991Z" fill="#E5E5E5"/>
<path d="M8.14679 437.89C8.14679 439.926 6.11009 441.963 4.07339 441.963C2.0367 441.963 0 439.926 0 437.89C0 435.853 2.0367 433.816 4.07339 433.816C6.11009 433.816 8.14679 435.174 8.14679 437.89Z" fill="#E5E5E5"/>
<path d="M95.0458 437.89C95.0458 439.926 93.0091 441.963 90.9724 441.963C88.9357 441.963 86.899 439.926 86.899 437.89C86.899 435.853 88.9357 433.816 90.9724 433.816C93.0091 433.816 95.0458 435.174 95.0458 437.89Z" fill="#E5E5E5"/>
<path d="M181.945 437.89C181.945 439.926 179.908 441.963 177.871 441.963C175.835 441.963 173.798 439.926 173.798 437.89C173.798 435.853 175.835 433.816 177.871 433.816C179.908 433.816 181.945 435.174 181.945 437.89Z" fill="#E5E5E5"/>
<path d="M268.844 437.89C268.844 439.926 266.807 441.963 264.771 441.963C262.734 441.963 260.697 439.926 260.697 437.89C260.697 435.853 262.734 433.816 264.771 433.816C266.807 433.816 268.844 435.174 268.844 437.89Z" fill="#E5E5E5"/>
<path d="M355.064 437.89C355.064 439.926 353.027 441.963 350.991 441.963C348.954 441.963 346.917 439.926 346.917 437.89C346.917 435.853 348.954 433.816 350.991 433.816C353.027 433.816 355.064 435.174 355.064 437.89Z" fill="#E5E5E5"/>
<path d="M441.963 437.89C441.963 439.926 439.927 441.963 437.89 441.963C435.853 441.963 433.817 439.926 433.817 437.89C433.817 435.853 435.853 433.816 437.89 433.816C439.927 433.816 441.963 435.174 441.963 437.89Z" fill="#E5E5E5"/>
<path d="M528.862 437.89C528.862 439.926 526.826 441.963 524.789 441.963C522.752 441.963 520.716 439.926 520.716 437.89C520.716 435.853 522.752 433.816 524.789 433.816C526.826 433.816 528.862 435.174 528.862 437.89Z" fill="#E5E5E5"/>
<path d="M615.083 437.89C615.083 439.926 613.046 441.963 611.009 441.963C608.973 441.963 606.936 439.926 606.936 437.89C606.936 435.853 608.973 433.816 611.009 433.816C613.725 433.816 615.083 435.174 615.083 437.89Z" fill="#E5E5E5"/>
<path d="M701.982 437.89C701.982 439.926 699.945 441.963 697.908 441.963C695.872 441.963 693.835 439.926 693.835 437.89C693.835 435.853 695.872 433.816 697.908 433.816C699.945 433.816 701.982 435.174 701.982 437.89Z" fill="#E5E5E5"/>
<path d="M788.881 437.89C788.881 439.926 786.844 441.963 784.807 441.963C782.771 441.963 780.734 439.926 780.734 437.89C780.734 435.853 782.771 433.816 784.807 433.816C786.844 433.816 788.881 435.174 788.881 437.89Z" fill="#E5E5E5"/>
<path d="M875.78 437.89C875.78 439.926 873.743 441.963 871.706 441.963C869.67 441.963 867.633 439.926 867.633 437.89C867.633 435.853 869.67 433.816 871.706 433.816C873.743 433.816 875.78 435.174 875.78 437.89Z" fill="#E5E5E5"/>
<path d="M962 437.89C962 439.926 959.963 441.963 957.927 441.963C955.89 441.963 953.853 439.926 953.853 437.89C953.853 435.853 955.89 433.816 957.927 433.816C960.642 433.816 962 435.174 962 437.89Z" fill="#E5E5E5"/>
<path d="M8.14679 524.789C8.14679 526.826 6.11009 528.862 4.07339 528.862C2.0367 528.862 0 526.826 0 524.789C0 522.752 2.0367 520.715 4.07339 520.715C6.11009 520.715 8.14679 522.073 8.14679 524.789Z" fill="#E5E5E5"/>
<path d="M95.0458 524.789C95.0458 526.826 93.0091 528.863 90.9724 528.863C88.9357 528.863 86.899 526.826 86.899 524.789C86.899 522.753 88.9357 520.716 90.9724 520.716C93.0091 520.037 95.0458 522.074 95.0458 524.789Z" fill="#E5E5E5"/>
<path d="M181.945 524.789C181.945 526.826 179.908 528.863 177.871 528.863C175.835 528.863 173.798 526.826 173.798 524.789C173.798 522.753 175.835 520.716 177.871 520.716C179.908 520.037 181.945 522.074 181.945 524.789Z" fill="#E5E5E5"/>
<path d="M268.844 524.789C268.844 526.826 266.807 528.863 264.771 528.863C262.734 528.863 260.697 526.826 260.697 524.789C260.697 522.753 262.734 520.716 264.771 520.716C266.807 520.037 268.844 522.074 268.844 524.789Z" fill="#E5E5E5"/>
<path d="M355.064 524.789C355.064 526.826 353.027 528.863 350.991 528.863C348.954 528.863 346.917 526.826 346.917 524.789C346.917 522.753 348.954 520.716 350.991 520.716C353.027 520.037 355.064 522.074 355.064 524.789Z" fill="#E5E5E5"/>
<path d="M441.963 524.789C441.963 526.826 439.927 528.862 437.89 528.862C435.853 528.862 433.817 526.826 433.817 524.789C433.817 522.752 435.853 520.715 437.89 520.715C439.927 520.715 441.963 522.073 441.963 524.789Z" fill="#E5E5E5"/>
<path d="M528.862 524.789C528.862 526.826 526.826 528.862 524.789 528.862C522.752 528.862 520.716 526.826 520.716 524.789C520.716 522.752 522.752 520.715 524.789 520.715C526.826 520.715 528.862 522.073 528.862 524.789Z" fill="#E5E5E5"/>
<path d="M615.083 524.789C615.083 526.826 613.046 528.863 611.009 528.863C608.973 528.863 606.936 526.826 606.936 524.789C606.936 522.753 608.973 520.716 611.009 520.716C613.725 520.037 615.083 522.074 615.083 524.789Z" fill="#E5E5E5"/>
<path d="M701.982 524.789C701.982 526.826 699.945 528.863 697.908 528.863C695.872 528.863 693.835 526.826 693.835 524.789C693.835 522.753 695.872 520.716 697.908 520.716C699.945 520.037 701.982 522.074 701.982 524.789Z" fill="#E5E5E5"/>
<path d="M788.881 524.789C788.881 526.826 786.844 528.863 784.807 528.863C782.771 528.863 780.734 526.826 780.734 524.789C780.734 522.753 782.771 520.716 784.807 520.716C786.844 520.037 788.881 522.074 788.881 524.789Z" fill="#E5E5E5"/>
<path d="M875.78 524.789C875.78 526.826 873.743 528.863 871.706 528.863C869.67 528.863 867.633 526.826 867.633 524.789C867.633 522.753 869.67 520.716 871.706 520.716C873.743 520.037 875.78 522.074 875.78 524.789Z" fill="#E5E5E5"/>
<path d="M962 524.789C962 526.826 959.963 528.863 957.927 528.863C955.89 528.863 953.853 526.826 953.853 524.789C953.853 522.753 955.89 520.716 957.927 520.716C960.642 520.037 962 522.074 962 524.789Z" fill="#E5E5E5"/>
<path d="M8.14679 611.009C8.14679 613.045 6.11009 615.082 4.07339 615.082C2.0367 615.082 0 613.724 0 611.009C0 608.972 2.0367 606.935 4.07339 606.935C6.11009 606.935 8.14679 608.972 8.14679 611.009Z" fill="#E5E5E5"/>
<path d="M95.0458 611.009C95.0458 613.045 93.0091 615.082 90.9724 615.082C88.9357 615.082 86.899 613.045 86.899 611.009C86.899 608.972 88.9357 606.935 90.9724 606.935C93.0091 606.935 95.0458 608.972 95.0458 611.009Z" fill="#E5E5E5"/>
<path d="M181.945 611.009C181.945 613.045 179.908 615.082 177.871 615.082C175.835 615.082 173.798 613.045 173.798 611.009C173.798 608.972 175.835 606.935 177.871 606.935C179.908 606.935 181.945 608.972 181.945 611.009Z" fill="#E5E5E5"/>
<path d="M268.844 611.009C268.844 613.045 266.807 615.082 264.771 615.082C262.734 615.082 260.697 613.045 260.697 611.009C260.697 608.972 262.734 606.935 264.771 606.935C266.807 606.935 268.844 608.972 268.844 611.009Z" fill="#E5E5E5"/>
<path d="M355.064 611.009C355.064 613.045 353.027 615.082 350.991 615.082C348.954 615.082 346.917 613.045 346.917 611.009C346.917 608.972 348.954 606.935 350.991 606.935C353.027 606.935 355.064 608.972 355.064 611.009Z" fill="#E5E5E5"/>
<path d="M441.963 611.009C441.963 613.045 439.927 615.082 437.89 615.082C435.853 615.082 433.817 613.045 433.817 611.009C433.817 608.972 435.853 606.935 437.89 606.935C439.927 606.935 441.963 608.972 441.963 611.009Z" fill="#E5E5E5"/>
<path d="M528.862 611.009C528.862 613.045 526.826 615.082 524.789 615.082C522.752 615.082 520.716 613.045 520.716 611.009C520.716 608.972 522.752 606.935 524.789 606.935C526.826 606.935 528.862 608.972 528.862 611.009Z" fill="#E5E5E5"/>
<path d="M615.083 611.009C615.083 613.045 613.046 615.082 611.009 615.082C608.973 615.082 606.936 613.045 606.936 611.009C606.936 608.972 608.973 606.935 611.009 606.935C613.725 606.935 615.083 608.972 615.083 611.009Z" fill="#E5E5E5"/>
<path d="M701.982 611.009C701.982 613.045 699.945 615.082 697.908 615.082C695.872 615.082 693.835 613.045 693.835 611.009C693.835 608.972 695.872 606.935 697.908 606.935C699.945 606.935 701.982 608.972 701.982 611.009Z" fill="#E5E5E5"/>
<path d="M788.881 611.009C788.881 613.045 786.844 615.082 784.807 615.082C782.771 615.082 780.734 613.045 780.734 611.009C780.734 608.972 782.771 606.935 784.807 606.935C786.844 606.935 788.881 608.972 788.881 611.009Z" fill="#E5E5E5"/>
<path d="M875.78 611.009C875.78 613.045 873.743 615.082 871.706 615.082C869.67 615.082 867.633 613.045 867.633 611.009C867.633 608.972 869.67 606.935 871.706 606.935C873.743 606.935 875.78 608.972 875.78 611.009Z" fill="#E5E5E5"/>
<path d="M962 611.009C962 613.045 959.963 615.082 957.927 615.082C955.89 615.082 953.853 613.045 953.853 611.009C953.853 608.972 955.89 606.935 957.927 606.935C960.642 606.935 962 608.972 962 611.009Z" fill="#E5E5E5"/>
<path d="M8.14679 697.908C8.14679 699.945 6.11009 701.981 4.07339 701.981C2.0367 701.981 0 699.945 0 697.908C0 695.871 2.0367 693.835 4.07339 693.835C6.11009 693.835 8.14679 695.871 8.14679 697.908Z" fill="#E5E5E5"/>
<path d="M95.0458 697.908C95.0458 699.945 93.0091 701.981 90.9724 701.981C88.9357 701.981 86.899 699.945 86.899 697.908C86.899 695.871 88.9357 693.835 90.9724 693.835C93.0091 693.835 95.0458 695.871 95.0458 697.908Z" fill="#E5E5E5"/>
<path d="M181.945 697.908C181.945 699.945 179.908 701.981 177.871 701.981C175.835 701.981 173.798 699.945 173.798 697.908C173.798 695.871 175.835 693.835 177.871 693.835C179.908 693.835 181.945 695.871 181.945 697.908Z" fill="#E5E5E5"/>
<path d="M268.844 697.908C268.844 699.945 266.807 701.981 264.771 701.981C262.734 701.981 260.697 699.945 260.697 697.908C260.697 695.871 262.734 693.835 264.771 693.835C266.807 693.835 268.844 695.871 268.844 697.908Z" fill="#E5E5E5"/>
<path d="M355.064 697.908C355.064 699.945 353.027 701.981 350.991 701.981C348.954 701.981 346.917 699.945 346.917 697.908C346.917 695.871 348.954 693.835 350.991 693.835C353.027 693.835 355.064 695.871 355.064 697.908Z" fill="#E5E5E5"/>
<path d="M441.963 697.908C441.963 699.945 439.927 701.981 437.89 701.981C435.853 701.981 433.817 699.945 433.817 697.908C433.817 695.871 435.853 693.835 437.89 693.835C439.927 693.835 441.963 695.871 441.963 697.908Z" fill="#E5E5E5"/>
<path d="M528.862 697.908C528.862 699.945 526.826 701.981 524.789 701.981C522.752 701.981 520.716 699.945 520.716 697.908C520.716 695.871 522.752 693.835 524.789 693.835C526.826 693.835 528.862 695.871 528.862 697.908Z" fill="#E5E5E5"/>
<path d="M615.083 697.908C615.083 699.945 613.046 701.981 611.009 701.981C608.973 701.981 606.936 699.945 606.936 697.908C606.936 695.871 608.973 693.835 611.009 693.835C613.725 693.835 615.083 695.871 615.083 697.908Z" fill="#E5E5E5"/>
<path d="M701.982 697.908C701.982 699.945 699.945 701.981 697.908 701.981C695.872 701.981 693.835 699.945 693.835 697.908C693.835 695.871 695.872 693.835 697.908 693.835C699.945 693.835 701.982 695.871 701.982 697.908Z" fill="#E5E5E5"/>
<path d="M788.881 697.908C788.881 699.945 786.844 701.981 784.807 701.981C782.771 701.981 780.734 699.945 780.734 697.908C780.734 695.871 782.771 693.835 784.807 693.835C786.844 693.835 788.881 695.871 788.881 697.908Z" fill="#E5E5E5"/>
<path d="M875.78 697.908C875.78 699.945 873.743 701.981 871.706 701.981C869.67 701.981 867.633 699.945 867.633 697.908C867.633 695.871 869.67 693.835 871.706 693.835C873.743 693.835 875.78 695.871 875.78 697.908Z" fill="#E5E5E5"/>
<path d="M962 697.908C962 699.945 959.963 701.981 957.927 701.981C955.89 701.981 953.853 699.945 953.853 697.908C953.853 695.871 955.89 693.835 957.927 693.835C960.642 693.835 962 695.871 962 697.908Z" fill="#E5E5E5"/>
<path d="M8.14679 784.807C8.14679 786.844 6.11009 788.881 4.07339 788.881C2.0367 788.881 0 786.844 0 784.807C0 782.771 2.0367 780.734 4.07339 780.734C6.11009 780.734 8.14679 782.092 8.14679 784.807Z" fill="#E5E5E5"/>
<path d="M95.0458 784.807C95.0458 786.844 93.0091 788.881 90.9724 788.881C88.9357 788.881 86.899 786.844 86.899 784.807C86.899 782.771 88.9357 780.734 90.9724 780.734C93.0091 780.734 95.0458 782.092 95.0458 784.807Z" fill="#E5E5E5"/>
<path d="M181.945 784.807C181.945 786.844 179.908 788.881 177.871 788.881C175.835 788.881 173.798 786.844 173.798 784.807C173.798 782.771 175.835 780.734 177.871 780.734C179.908 780.734 181.945 782.092 181.945 784.807Z" fill="#E5E5E5"/>
<path d="M268.844 784.807C268.844 786.844 266.807 788.881 264.771 788.881C262.734 788.881 260.697 786.844 260.697 784.807C260.697 782.771 262.734 780.734 264.771 780.734C266.807 780.734 268.844 782.092 268.844 784.807Z" fill="#E5E5E5"/>
<path d="M355.064 784.807C355.064 786.844 353.027 788.881 350.991 788.881C348.954 788.881 346.917 786.844 346.917 784.807C346.917 782.771 348.954 780.734 350.991 780.734C353.027 780.734 355.064 782.092 355.064 784.807Z" fill="#E5E5E5"/>
<path d="M441.963 784.807C441.963 786.844 439.927 788.881 437.89 788.881C435.853 788.881 433.817 786.844 433.817 784.807C433.817 782.771 435.853 780.734 437.89 780.734C439.927 780.734 441.963 782.092 441.963 784.807Z" fill="#E5E5E5"/>
<path d="M528.862 784.807C528.862 786.844 526.826 788.881 524.789 788.881C522.752 788.881 520.716 786.844 520.716 784.807C520.716 782.771 522.752 780.734 524.789 780.734C526.826 780.734 528.862 782.092 528.862 784.807Z" fill="#E5E5E5"/>
<path d="M615.083 784.807C615.083 786.844 613.046 788.881 611.009 788.881C608.973 788.881 606.936 786.844 606.936 784.807C606.936 782.771 608.973 780.734 611.009 780.734C613.725 780.734 615.083 782.092 615.083 784.807Z" fill="#E5E5E5"/>
<path d="M701.982 784.807C701.982 786.844 699.945 788.881 697.908 788.881C695.872 788.881 693.835 786.844 693.835 784.807C693.835 782.771 695.872 780.734 697.908 780.734C699.945 780.734 701.982 782.092 701.982 784.807Z" fill="#E5E5E5"/>
<path d="M788.881 784.807C788.881 786.844 786.844 788.881 784.807 788.881C782.771 788.881 780.734 786.844 780.734 784.807C780.734 782.771 782.771 780.734 784.807 780.734C786.844 780.734 788.881 782.092 788.881 784.807Z" fill="#E5E5E5"/>
<path d="M875.78 784.807C875.78 786.844 873.743 788.881 871.706 788.881C869.67 788.881 867.633 786.844 867.633 784.807C867.633 782.771 869.67 780.734 871.706 780.734C873.743 780.734 875.78 782.092 875.78 784.807Z" fill="#E5E5E5"/>
<path d="M962 784.807C962 786.844 959.963 788.881 957.927 788.881C955.89 788.881 953.853 786.844 953.853 784.807C953.853 782.771 955.89 780.734 957.927 780.734C960.642 780.734 962 782.092 962 784.807Z" fill="#E5E5E5"/>
<path d="M8.14679 871.028C8.14679 873.064 6.11009 875.101 4.07339 875.101C2.0367 875.101 0 873.743 0 871.028C0 868.991 2.0367 866.954 4.07339 866.954C6.11009 866.954 8.14679 868.991 8.14679 871.028Z" fill="#E5E5E5"/>
<path d="M95.0458 871.028C95.0458 873.064 93.0091 875.101 90.9724 875.101C88.9357 875.101 86.899 873.064 86.899 871.028C86.899 868.991 88.9357 866.954 90.9724 866.954C93.0091 866.954 95.0458 868.991 95.0458 871.028Z" fill="#E5E5E5"/>
<path d="M181.945 871.028C181.945 873.064 179.908 875.101 177.871 875.101C175.835 875.101 173.798 873.064 173.798 871.028C173.798 868.991 175.835 866.954 177.871 866.954C179.908 866.954 181.945 868.991 181.945 871.028Z" fill="#E5E5E5"/>
<path d="M268.844 871.028C268.844 873.064 266.807 875.101 264.771 875.101C262.734 875.101 260.697 873.064 260.697 871.028C260.697 868.991 262.734 866.954 264.771 866.954C266.807 866.954 268.844 868.991 268.844 871.028Z" fill="#E5E5E5"/>
<path d="M355.064 871.028C355.064 873.064 353.027 875.101 350.991 875.101C348.954 875.101 346.917 873.064 346.917 871.028C346.917 868.991 348.954 866.954 350.991 866.954C353.027 866.954 355.064 868.991 355.064 871.028Z" fill="#E5E5E5"/>
<path d="M441.963 871.028C441.963 873.064 439.927 875.101 437.89 875.101C435.853 875.101 433.817 873.064 433.817 871.028C433.817 868.991 435.853 866.954 437.89 866.954C439.927 866.954 441.963 868.991 441.963 871.028Z" fill="#E5E5E5"/>
<path d="M528.862 871.028C528.862 873.064 526.826 875.101 524.789 875.101C522.752 875.101 520.716 873.064 520.716 871.028C520.716 868.991 522.752 866.954 524.789 866.954C526.826 866.954 528.862 868.991 528.862 871.028Z" fill="#E5E5E5"/>
<path d="M615.083 871.028C615.083 873.064 613.046 875.101 611.009 875.101C608.973 875.101 606.936 873.064 606.936 871.028C606.936 868.991 608.973 866.954 611.009 866.954C613.725 866.954 615.083 868.991 615.083 871.028Z" fill="#E5E5E5"/>
<path d="M701.982 871.028C701.982 873.064 699.945 875.101 697.908 875.101C695.872 875.101 693.835 873.064 693.835 871.028C693.835 868.991 695.872 866.954 697.908 866.954C699.945 866.954 701.982 868.991 701.982 871.028Z" fill="#E5E5E5"/>
<path d="M788.881 871.028C788.881 873.064 786.844 875.101 784.807 875.101C782.771 875.101 780.734 873.064 780.734 871.028C780.734 868.991 782.771 866.954 784.807 866.954C786.844 866.954 788.881 868.991 788.881 871.028Z" fill="#E5E5E5"/>
<path d="M875.78 871.028C875.78 873.064 873.743 875.101 871.706 875.101C869.67 875.101 867.633 873.064 867.633 871.028C867.633 868.991 869.67 866.954 871.706 866.954C873.743 866.954 875.78 868.991 875.78 871.028Z" fill="#E5E5E5"/>
<path d="M962 871.028C962 873.064 959.963 875.101 957.927 875.101C955.89 875.101 953.853 873.064 953.853 871.028C953.853 868.991 955.89 866.954 957.927 866.954C960.642 866.954 962 868.991 962 871.028Z" fill="#E5E5E5"/>
<path d="M8.14679 957.927C8.14679 959.963 6.11009 962 4.07339 962C2.0367 962 0 960.642 0 957.927C0 955.89 2.0367 953.853 4.07339 953.853C6.11009 953.853 8.14679 955.89 8.14679 957.927Z" fill="#E5E5E5"/>
<path d="M95.0458 957.927C95.0458 959.963 93.0091 962 90.9724 962C88.9357 962 86.899 959.963 86.899 957.927C86.899 955.89 88.9357 953.853 90.9724 953.853C93.0091 953.853 95.0458 955.89 95.0458 957.927Z" fill="#E5E5E5"/>
<path d="M181.945 957.927C181.945 959.963 179.908 962 177.871 962C175.835 962 173.798 959.963 173.798 957.927C173.798 955.89 175.835 953.853 177.871 953.853C179.908 953.853 181.945 955.89 181.945 957.927Z" fill="#E5E5E5"/>
<path d="M268.844 957.927C268.844 959.963 266.807 962 264.771 962C262.734 962 260.697 959.963 260.697 957.927C260.697 955.89 262.734 953.853 264.771 953.853C266.807 953.853 268.844 955.89 268.844 957.927Z" fill="#E5E5E5"/>
<path d="M355.064 957.927C355.064 959.963 353.027 962 350.991 962C348.954 962 346.917 959.963 346.917 957.927C346.917 955.89 348.954 953.853 350.991 953.853C353.027 953.853 355.064 955.89 355.064 957.927Z" fill="#E5E5E5"/>
<path d="M441.963 957.927C441.963 959.963 439.927 962 437.89 962C435.853 962 433.817 959.963 433.817 957.927C433.817 955.89 435.853 953.853 437.89 953.853C439.927 953.853 441.963 955.89 441.963 957.927Z" fill="#E5E5E5"/>
<path d="M528.862 957.927C528.862 959.963 526.826 962 524.789 962C522.752 962 520.716 959.963 520.716 957.927C520.716 955.89 522.752 953.853 524.789 953.853C526.826 953.853 528.862 955.89 528.862 957.927Z" fill="#E5E5E5"/>
<path d="M615.083 957.927C615.083 959.963 613.046 962 611.009 962C608.973 962 606.936 959.963 606.936 957.927C606.936 955.89 608.973 953.853 611.009 953.853C613.725 953.853 615.083 955.89 615.083 957.927Z" fill="#E5E5E5"/>
<path d="M701.982 957.927C701.982 959.963 699.945 962 697.908 962C695.872 962 693.835 959.963 693.835 957.927C693.835 955.89 695.872 953.853 697.908 953.853C699.945 953.853 701.982 955.89 701.982 957.927Z" fill="#E5E5E5"/>
<path d="M788.881 957.927C788.881 959.963 786.844 962 784.807 962C782.771 962 780.734 959.963 780.734 957.927C780.734 955.89 782.771 953.853 784.807 953.853C786.844 953.853 788.881 955.89 788.881 957.927Z" fill="#E5E5E5"/>
<path d="M875.78 957.927C875.78 959.963 873.743 962 871.706 962C869.67 962 867.633 959.963 867.633 957.927C867.633 955.89 869.67 953.853 871.706 953.853C873.743 953.853 875.78 955.89 875.78 957.927Z" fill="#E5E5E5"/>
<path d="M962 957.927C962 959.963 959.963 962 957.927 962C955.89 962 953.853 959.963 953.853 957.927C953.853 955.89 955.89 953.853 957.927 953.853C960.642 953.853 962 955.89 962 957.927Z" fill="#E5E5E5"/>
</svg>
