<svg width="114" height="52" viewBox="0 0 114 52" fill="none" xmlns="http://www.w3.org/2000/svg">
<circle cx="26" cy="26" r="26" fill="white"/>
<path d="M36.6066 30.3934C34.9729 28.7596 33.0283 27.5502 30.9066 26.8181C33.179 25.253 34.6719 22.6337 34.6719 19.6719C34.6719 14.8902 30.7817 11 26 11C21.2183 11 17.3281 14.8902 17.3281 19.6719C17.3281 22.6337 18.821 25.253 21.0935 26.8181C18.9718 27.5502 17.0272 28.7596 15.3934 30.3934C12.5603 33.2265 11 36.9934 11 41H13.3438C13.3438 34.0213 19.0213 28.3438 26 28.3438C32.9787 28.3438 38.6562 34.0213 38.6562 41H41C41 36.9934 39.4397 33.2265 36.6066 30.3934ZM26 26C22.5107 26 19.6719 23.1612 19.6719 19.6719C19.6719 16.1825 22.5107 13.3438 26 13.3438C29.4893 13.3438 32.3281 16.1825 32.3281 19.6719C32.3281 23.1612 29.4893 26 26 26Z" fill="#2E266F"/>
<circle cx="43.5" cy="7.5" r="7.5" fill="#31A24C"/>
<path d="M64.1326 19.848V26.904C64.1326 27.896 64.3726 28.632 64.8526 29.112C65.3432 29.592 66.0206 29.832 66.8846 29.832C67.7379 29.832 68.4046 29.592 68.8846 29.112C69.3752 28.632 69.6206 27.896 69.6206 26.904V19.848H71.0766V26.888C71.0766 27.816 70.8899 28.6 70.5166 29.24C70.1432 29.8693 69.6366 30.3387 68.9966 30.648C68.3672 30.9573 67.6579 31.112 66.8686 31.112C66.0792 31.112 65.3646 30.9573 64.7246 30.648C64.0952 30.3387 63.5939 29.8693 63.2206 29.24C62.8579 28.6 62.6766 27.816 62.6766 26.888V19.848H64.1326ZM76.6094 31.144C75.9374 31.144 75.3348 31.032 74.8014 30.808C74.2681 30.5733 73.8468 30.2533 73.5374 29.848C73.2281 29.432 73.0574 28.9573 73.0254 28.424H74.5294C74.5721 28.8613 74.7748 29.2187 75.1374 29.496C75.5108 29.7733 75.9961 29.912 76.5934 29.912C77.1481 29.912 77.5854 29.7893 77.9054 29.544C78.2254 29.2987 78.3854 28.9893 78.3854 28.616C78.3854 28.232 78.2148 27.9493 77.8734 27.768C77.5321 27.576 77.0041 27.3893 76.2894 27.208C75.6388 27.0373 75.1054 26.8667 74.6894 26.696C74.2841 26.5147 73.9321 26.2533 73.6334 25.912C73.3454 25.56 73.2014 25.1013 73.2014 24.536C73.2014 24.088 73.3348 23.6773 73.6014 23.304C73.8681 22.9307 74.2468 22.6373 74.7374 22.424C75.2281 22.2 75.7881 22.088 76.4174 22.088C77.3881 22.088 78.1721 22.3333 78.7694 22.824C79.3668 23.3147 79.6868 23.9867 79.7294 24.84H78.2734C78.2414 24.3813 78.0548 24.0133 77.7134 23.736C77.3828 23.4587 76.9348 23.32 76.3694 23.32C75.8468 23.32 75.4308 23.432 75.1214 23.656C74.8121 23.88 74.6574 24.1733 74.6574 24.536C74.6574 24.824 74.7481 25.064 74.9294 25.256C75.1214 25.4373 75.3561 25.5867 75.6334 25.704C75.9214 25.8107 76.3161 25.9333 76.8174 26.072C77.4468 26.2427 77.9588 26.4133 78.3534 26.584C78.7481 26.744 79.0841 26.9893 79.3614 27.32C79.6494 27.6507 79.7988 28.0827 79.8094 28.616C79.8094 29.096 79.6761 29.528 79.4094 29.912C79.1428 30.296 78.7641 30.6 78.2734 30.824C77.7934 31.0373 77.2388 31.144 76.6094 31.144ZM89.8648 26.28C89.8648 26.5573 89.8488 26.8507 89.8168 27.16H82.8088C82.8621 28.024 83.1555 28.7013 83.6888 29.192C84.2328 29.672 84.8888 29.912 85.6568 29.912C86.2861 29.912 86.8088 29.768 87.2248 29.48C87.6515 29.1813 87.9501 28.7867 88.1208 28.296H89.6888C89.4541 29.1387 88.9848 29.8267 88.2808 30.36C87.5768 30.8827 86.7021 31.144 85.6568 31.144C84.8248 31.144 84.0781 30.9573 83.4168 30.584C82.7661 30.2107 82.2541 29.6827 81.8808 29C81.5075 28.3067 81.3208 27.5067 81.3208 26.6C81.3208 25.6933 81.5021 24.8987 81.8648 24.216C82.2275 23.5333 82.7341 23.0107 83.3848 22.648C84.0461 22.2747 84.8035 22.088 85.6568 22.088C86.4888 22.088 87.2248 22.2693 87.8648 22.632C88.5048 22.9947 88.9955 23.496 89.3368 24.136C89.6888 24.7653 89.8648 25.48 89.8648 26.28ZM88.3608 25.976C88.3608 25.4213 88.2381 24.9467 87.9928 24.552C87.7475 24.1467 87.4115 23.8427 86.9848 23.64C86.5688 23.4267 86.1048 23.32 85.5928 23.32C84.8568 23.32 84.2275 23.5547 83.7048 24.024C83.1928 24.4933 82.8995 25.144 82.8248 25.976H88.3608ZM93.2427 23.656C93.4987 23.1547 93.8614 22.7653 94.3307 22.488C94.8107 22.2107 95.392 22.072 96.0747 22.072V23.576H95.6907C94.0587 23.576 93.2427 24.4613 93.2427 26.232V31H91.7867V22.232H93.2427V23.656Z" fill="white"/>
<path d="M108.472 26.2531L104.22 23.3545C103.927 23.1541 103.927 22.8302 104.22 22.6319L104.927 22.1503C105.221 21.9499 105.696 21.9499 105.987 22.1503L109 24.2049L112.013 22.1503C112.307 21.9499 112.782 21.9499 113.073 22.1503L113.78 22.6319C114.073 22.8323 114.073 23.1563 113.78 23.3545L109.528 26.2531C109.241 26.4535 108.766 26.4535 108.472 26.2531Z" fill="white"/>
</svg>
